<mxfile host="app.diagrams.net" agent="Mozilla/5.0 (Windows NT 10.0; Win64; x64) AppleWebKit/537.36 (KHTML, like Gecko) Chrome/133.0.0.0 Safari/537.36" version="26.0.15">
  <diagram name="Page-1" id="CqgDFJyO5xSgVtya6y6N">
    <mxGraphModel dx="4026" dy="3072" grid="1" gridSize="10" guides="1" tooltips="1" connect="1" arrows="1" fold="1" page="1" pageScale="1" pageWidth="850" pageHeight="1100" math="0" shadow="0">
      <root>
        <mxCell id="0" />
        <mxCell id="1" parent="0" />
        <mxCell id="Y2LT002sczB3uzX_uujO-138" style="edgeStyle=orthogonalEdgeStyle;rounded=0;orthogonalLoop=1;jettySize=auto;html=1;exitX=1;exitY=0.5;exitDx=0;exitDy=0;entryX=0;entryY=0.5;entryDx=0;entryDy=0;" edge="1" parent="1" source="Y2LT002sczB3uzX_uujO-1" target="Y2LT002sczB3uzX_uujO-132">
          <mxGeometry relative="1" as="geometry" />
        </mxCell>
        <mxCell id="Y2LT002sczB3uzX_uujO-141" style="edgeStyle=orthogonalEdgeStyle;rounded=0;orthogonalLoop=1;jettySize=auto;html=1;exitX=1;exitY=0.5;exitDx=0;exitDy=0;entryX=0;entryY=0.5;entryDx=0;entryDy=0;" edge="1" parent="1" source="Y2LT002sczB3uzX_uujO-1" target="Y2LT002sczB3uzX_uujO-140">
          <mxGeometry relative="1" as="geometry" />
        </mxCell>
        <mxCell id="Y2LT002sczB3uzX_uujO-142" style="edgeStyle=orthogonalEdgeStyle;rounded=0;orthogonalLoop=1;jettySize=auto;html=1;exitX=1;exitY=0.5;exitDx=0;exitDy=0;entryX=0;entryY=0.5;entryDx=0;entryDy=0;" edge="1" parent="1" source="Y2LT002sczB3uzX_uujO-1" target="Y2LT002sczB3uzX_uujO-139">
          <mxGeometry relative="1" as="geometry" />
        </mxCell>
        <mxCell id="Y2LT002sczB3uzX_uujO-343" style="edgeStyle=orthogonalEdgeStyle;rounded=0;orthogonalLoop=1;jettySize=auto;html=1;exitX=1;exitY=0.5;exitDx=0;exitDy=0;entryX=0;entryY=0.5;entryDx=0;entryDy=0;" edge="1" parent="1" source="Y2LT002sczB3uzX_uujO-1" target="Y2LT002sczB3uzX_uujO-342">
          <mxGeometry relative="1" as="geometry">
            <Array as="points">
              <mxPoint y="120" />
              <mxPoint y="1530" />
            </Array>
          </mxGeometry>
        </mxCell>
        <mxCell id="Y2LT002sczB3uzX_uujO-414" style="edgeStyle=orthogonalEdgeStyle;rounded=0;orthogonalLoop=1;jettySize=auto;html=1;exitX=1;exitY=0.5;exitDx=0;exitDy=0;entryX=0;entryY=0.75;entryDx=0;entryDy=0;" edge="1" parent="1" source="Y2LT002sczB3uzX_uujO-1" target="Y2LT002sczB3uzX_uujO-405">
          <mxGeometry relative="1" as="geometry" />
        </mxCell>
        <mxCell id="Y2LT002sczB3uzX_uujO-1" value="LOGIN" style="rounded=1;whiteSpace=wrap;html=1;" vertex="1" parent="1">
          <mxGeometry x="-320" y="90" width="120" height="60" as="geometry" />
        </mxCell>
        <mxCell id="Y2LT002sczB3uzX_uujO-6" style="edgeStyle=orthogonalEdgeStyle;rounded=0;orthogonalLoop=1;jettySize=auto;html=1;exitX=1;exitY=0.5;exitDx=0;exitDy=0;entryX=0;entryY=0.5;entryDx=0;entryDy=0;" edge="1" parent="1" source="Y2LT002sczB3uzX_uujO-2" target="Y2LT002sczB3uzX_uujO-3">
          <mxGeometry relative="1" as="geometry" />
        </mxCell>
        <mxCell id="Y2LT002sczB3uzX_uujO-7" style="edgeStyle=orthogonalEdgeStyle;rounded=0;orthogonalLoop=1;jettySize=auto;html=1;exitX=1;exitY=0.5;exitDx=0;exitDy=0;entryX=0;entryY=0.75;entryDx=0;entryDy=0;" edge="1" parent="1" source="Y2LT002sczB3uzX_uujO-2" target="Y2LT002sczB3uzX_uujO-4">
          <mxGeometry relative="1" as="geometry">
            <Array as="points">
              <mxPoint x="535" y="10" />
            </Array>
          </mxGeometry>
        </mxCell>
        <mxCell id="Y2LT002sczB3uzX_uujO-8" style="edgeStyle=orthogonalEdgeStyle;rounded=0;orthogonalLoop=1;jettySize=auto;html=1;exitX=1;exitY=0.5;exitDx=0;exitDy=0;entryX=0;entryY=0.5;entryDx=0;entryDy=0;" edge="1" parent="1" source="Y2LT002sczB3uzX_uujO-2" target="Y2LT002sczB3uzX_uujO-5">
          <mxGeometry relative="1" as="geometry" />
        </mxCell>
        <mxCell id="Y2LT002sczB3uzX_uujO-2" value="GUDANG A" style="rounded=1;whiteSpace=wrap;html=1;" vertex="1" parent="1">
          <mxGeometry x="370" y="-20" width="120" height="60" as="geometry" />
        </mxCell>
        <mxCell id="Y2LT002sczB3uzX_uujO-3" value="TERIMA" style="rounded=1;whiteSpace=wrap;html=1;" vertex="1" parent="1">
          <mxGeometry x="535" y="-100" width="120" height="60" as="geometry" />
        </mxCell>
        <mxCell id="Y2LT002sczB3uzX_uujO-4" value="LIST" style="rounded=1;whiteSpace=wrap;html=1;" vertex="1" parent="1">
          <mxGeometry x="535" y="-30" width="120" height="60" as="geometry" />
        </mxCell>
        <mxCell id="Y2LT002sczB3uzX_uujO-5" value="KIRIM" style="rounded=1;whiteSpace=wrap;html=1;" vertex="1" parent="1">
          <mxGeometry x="535" y="50" width="120" height="60" as="geometry" />
        </mxCell>
        <mxCell id="Y2LT002sczB3uzX_uujO-44" style="edgeStyle=orthogonalEdgeStyle;rounded=0;orthogonalLoop=1;jettySize=auto;html=1;exitX=1;exitY=0.5;exitDx=0;exitDy=0;entryX=0;entryY=0.5;entryDx=0;entryDy=0;" edge="1" source="Y2LT002sczB3uzX_uujO-47" target="Y2LT002sczB3uzX_uujO-48" parent="1">
          <mxGeometry relative="1" as="geometry" />
        </mxCell>
        <mxCell id="Y2LT002sczB3uzX_uujO-45" style="edgeStyle=orthogonalEdgeStyle;rounded=0;orthogonalLoop=1;jettySize=auto;html=1;exitX=1;exitY=0.5;exitDx=0;exitDy=0;entryX=0;entryY=0.75;entryDx=0;entryDy=0;" edge="1" source="Y2LT002sczB3uzX_uujO-47" target="Y2LT002sczB3uzX_uujO-49" parent="1">
          <mxGeometry relative="1" as="geometry">
            <Array as="points">
              <mxPoint x="535" y="240" />
            </Array>
          </mxGeometry>
        </mxCell>
        <mxCell id="Y2LT002sczB3uzX_uujO-46" style="edgeStyle=orthogonalEdgeStyle;rounded=0;orthogonalLoop=1;jettySize=auto;html=1;exitX=1;exitY=0.5;exitDx=0;exitDy=0;entryX=0;entryY=0.5;entryDx=0;entryDy=0;" edge="1" source="Y2LT002sczB3uzX_uujO-47" target="Y2LT002sczB3uzX_uujO-50" parent="1">
          <mxGeometry relative="1" as="geometry" />
        </mxCell>
        <mxCell id="Y2LT002sczB3uzX_uujO-47" value="GUDANG A" style="rounded=1;whiteSpace=wrap;html=1;" vertex="1" parent="1">
          <mxGeometry x="370" y="210" width="120" height="60" as="geometry" />
        </mxCell>
        <mxCell id="Y2LT002sczB3uzX_uujO-48" value="TERIMA" style="rounded=1;whiteSpace=wrap;html=1;" vertex="1" parent="1">
          <mxGeometry x="535" y="130" width="120" height="60" as="geometry" />
        </mxCell>
        <mxCell id="Y2LT002sczB3uzX_uujO-49" value="LIST" style="rounded=1;whiteSpace=wrap;html=1;" vertex="1" parent="1">
          <mxGeometry x="535" y="200" width="120" height="60" as="geometry" />
        </mxCell>
        <mxCell id="Y2LT002sczB3uzX_uujO-50" value="KIRIM" style="rounded=1;whiteSpace=wrap;html=1;" vertex="1" parent="1">
          <mxGeometry x="535" y="280" width="120" height="60" as="geometry" />
        </mxCell>
        <mxCell id="Y2LT002sczB3uzX_uujO-100" style="edgeStyle=orthogonalEdgeStyle;rounded=0;orthogonalLoop=1;jettySize=auto;html=1;exitX=1;exitY=0.5;exitDx=0;exitDy=0;entryX=0;entryY=0.5;entryDx=0;entryDy=0;" edge="1" source="Y2LT002sczB3uzX_uujO-103" target="Y2LT002sczB3uzX_uujO-104" parent="1">
          <mxGeometry relative="1" as="geometry" />
        </mxCell>
        <mxCell id="Y2LT002sczB3uzX_uujO-101" style="edgeStyle=orthogonalEdgeStyle;rounded=0;orthogonalLoop=1;jettySize=auto;html=1;exitX=1;exitY=0.5;exitDx=0;exitDy=0;entryX=0;entryY=0.75;entryDx=0;entryDy=0;" edge="1" source="Y2LT002sczB3uzX_uujO-103" target="Y2LT002sczB3uzX_uujO-105" parent="1">
          <mxGeometry relative="1" as="geometry">
            <Array as="points">
              <mxPoint x="535" y="500" />
            </Array>
          </mxGeometry>
        </mxCell>
        <mxCell id="Y2LT002sczB3uzX_uujO-102" style="edgeStyle=orthogonalEdgeStyle;rounded=0;orthogonalLoop=1;jettySize=auto;html=1;exitX=1;exitY=0.5;exitDx=0;exitDy=0;entryX=0;entryY=0.5;entryDx=0;entryDy=0;" edge="1" source="Y2LT002sczB3uzX_uujO-103" target="Y2LT002sczB3uzX_uujO-106" parent="1">
          <mxGeometry relative="1" as="geometry" />
        </mxCell>
        <mxCell id="Y2LT002sczB3uzX_uujO-103" value="GUDANG A" style="rounded=1;whiteSpace=wrap;html=1;" vertex="1" parent="1">
          <mxGeometry x="370" y="470" width="120" height="60" as="geometry" />
        </mxCell>
        <mxCell id="Y2LT002sczB3uzX_uujO-104" value="TERIMA" style="rounded=1;whiteSpace=wrap;html=1;" vertex="1" parent="1">
          <mxGeometry x="535" y="390" width="120" height="60" as="geometry" />
        </mxCell>
        <mxCell id="Y2LT002sczB3uzX_uujO-105" value="LIST" style="rounded=1;whiteSpace=wrap;html=1;" vertex="1" parent="1">
          <mxGeometry x="535" y="460" width="120" height="60" as="geometry" />
        </mxCell>
        <mxCell id="Y2LT002sczB3uzX_uujO-106" value="KIRIM" style="rounded=1;whiteSpace=wrap;html=1;" vertex="1" parent="1">
          <mxGeometry x="535" y="540" width="120" height="60" as="geometry" />
        </mxCell>
        <mxCell id="Y2LT002sczB3uzX_uujO-107" style="edgeStyle=orthogonalEdgeStyle;rounded=0;orthogonalLoop=1;jettySize=auto;html=1;exitX=1;exitY=0.5;exitDx=0;exitDy=0;entryX=0;entryY=0.5;entryDx=0;entryDy=0;" edge="1" source="Y2LT002sczB3uzX_uujO-110" target="Y2LT002sczB3uzX_uujO-111" parent="1">
          <mxGeometry relative="1" as="geometry" />
        </mxCell>
        <mxCell id="Y2LT002sczB3uzX_uujO-108" style="edgeStyle=orthogonalEdgeStyle;rounded=0;orthogonalLoop=1;jettySize=auto;html=1;exitX=1;exitY=0.5;exitDx=0;exitDy=0;entryX=0;entryY=0.75;entryDx=0;entryDy=0;" edge="1" source="Y2LT002sczB3uzX_uujO-110" target="Y2LT002sczB3uzX_uujO-112" parent="1">
          <mxGeometry relative="1" as="geometry">
            <Array as="points">
              <mxPoint x="535" y="730" />
            </Array>
          </mxGeometry>
        </mxCell>
        <mxCell id="Y2LT002sczB3uzX_uujO-109" style="edgeStyle=orthogonalEdgeStyle;rounded=0;orthogonalLoop=1;jettySize=auto;html=1;exitX=1;exitY=0.5;exitDx=0;exitDy=0;entryX=0;entryY=0.5;entryDx=0;entryDy=0;" edge="1" source="Y2LT002sczB3uzX_uujO-110" target="Y2LT002sczB3uzX_uujO-113" parent="1">
          <mxGeometry relative="1" as="geometry" />
        </mxCell>
        <mxCell id="Y2LT002sczB3uzX_uujO-110" value="GUDANG A" style="rounded=1;whiteSpace=wrap;html=1;" vertex="1" parent="1">
          <mxGeometry x="370" y="700" width="120" height="60" as="geometry" />
        </mxCell>
        <mxCell id="Y2LT002sczB3uzX_uujO-111" value="TERIMA" style="rounded=1;whiteSpace=wrap;html=1;" vertex="1" parent="1">
          <mxGeometry x="535" y="620" width="120" height="60" as="geometry" />
        </mxCell>
        <mxCell id="Y2LT002sczB3uzX_uujO-112" value="LIST" style="rounded=1;whiteSpace=wrap;html=1;" vertex="1" parent="1">
          <mxGeometry x="535" y="690" width="120" height="60" as="geometry" />
        </mxCell>
        <mxCell id="Y2LT002sczB3uzX_uujO-113" value="KIRIM" style="rounded=1;whiteSpace=wrap;html=1;" vertex="1" parent="1">
          <mxGeometry x="535" y="770" width="120" height="60" as="geometry" />
        </mxCell>
        <mxCell id="Y2LT002sczB3uzX_uujO-114" style="edgeStyle=orthogonalEdgeStyle;rounded=0;orthogonalLoop=1;jettySize=auto;html=1;exitX=1;exitY=0.5;exitDx=0;exitDy=0;entryX=0;entryY=0.5;entryDx=0;entryDy=0;" edge="1" source="Y2LT002sczB3uzX_uujO-117" target="Y2LT002sczB3uzX_uujO-118" parent="1">
          <mxGeometry relative="1" as="geometry" />
        </mxCell>
        <mxCell id="Y2LT002sczB3uzX_uujO-115" style="edgeStyle=orthogonalEdgeStyle;rounded=0;orthogonalLoop=1;jettySize=auto;html=1;exitX=1;exitY=0.5;exitDx=0;exitDy=0;entryX=0;entryY=0.75;entryDx=0;entryDy=0;" edge="1" source="Y2LT002sczB3uzX_uujO-117" target="Y2LT002sczB3uzX_uujO-119" parent="1">
          <mxGeometry relative="1" as="geometry">
            <Array as="points">
              <mxPoint x="535" y="950" />
            </Array>
          </mxGeometry>
        </mxCell>
        <mxCell id="Y2LT002sczB3uzX_uujO-116" style="edgeStyle=orthogonalEdgeStyle;rounded=0;orthogonalLoop=1;jettySize=auto;html=1;exitX=1;exitY=0.5;exitDx=0;exitDy=0;entryX=0;entryY=0.5;entryDx=0;entryDy=0;" edge="1" source="Y2LT002sczB3uzX_uujO-117" target="Y2LT002sczB3uzX_uujO-120" parent="1">
          <mxGeometry relative="1" as="geometry" />
        </mxCell>
        <mxCell id="Y2LT002sczB3uzX_uujO-117" value="GUDANG A" style="rounded=1;whiteSpace=wrap;html=1;" vertex="1" parent="1">
          <mxGeometry x="370" y="920" width="120" height="60" as="geometry" />
        </mxCell>
        <mxCell id="Y2LT002sczB3uzX_uujO-118" value="TERIMA" style="rounded=1;whiteSpace=wrap;html=1;" vertex="1" parent="1">
          <mxGeometry x="535" y="840" width="120" height="60" as="geometry" />
        </mxCell>
        <mxCell id="Y2LT002sczB3uzX_uujO-119" value="LIST" style="rounded=1;whiteSpace=wrap;html=1;" vertex="1" parent="1">
          <mxGeometry x="535" y="910" width="120" height="60" as="geometry" />
        </mxCell>
        <mxCell id="Y2LT002sczB3uzX_uujO-120" value="KIRIM" style="rounded=1;whiteSpace=wrap;html=1;" vertex="1" parent="1">
          <mxGeometry x="535" y="990" width="120" height="60" as="geometry" />
        </mxCell>
        <mxCell id="Y2LT002sczB3uzX_uujO-121" style="edgeStyle=orthogonalEdgeStyle;rounded=0;orthogonalLoop=1;jettySize=auto;html=1;exitX=1;exitY=0.5;exitDx=0;exitDy=0;entryX=0;entryY=0.5;entryDx=0;entryDy=0;" edge="1" source="Y2LT002sczB3uzX_uujO-124" target="Y2LT002sczB3uzX_uujO-125" parent="1">
          <mxGeometry relative="1" as="geometry" />
        </mxCell>
        <mxCell id="Y2LT002sczB3uzX_uujO-122" style="edgeStyle=orthogonalEdgeStyle;rounded=0;orthogonalLoop=1;jettySize=auto;html=1;exitX=1;exitY=0.5;exitDx=0;exitDy=0;entryX=0;entryY=0.75;entryDx=0;entryDy=0;" edge="1" source="Y2LT002sczB3uzX_uujO-124" target="Y2LT002sczB3uzX_uujO-126" parent="1">
          <mxGeometry relative="1" as="geometry">
            <Array as="points">
              <mxPoint x="535" y="1180" />
            </Array>
          </mxGeometry>
        </mxCell>
        <mxCell id="Y2LT002sczB3uzX_uujO-123" style="edgeStyle=orthogonalEdgeStyle;rounded=0;orthogonalLoop=1;jettySize=auto;html=1;exitX=1;exitY=0.5;exitDx=0;exitDy=0;entryX=0;entryY=0.5;entryDx=0;entryDy=0;" edge="1" source="Y2LT002sczB3uzX_uujO-124" target="Y2LT002sczB3uzX_uujO-127" parent="1">
          <mxGeometry relative="1" as="geometry" />
        </mxCell>
        <mxCell id="Y2LT002sczB3uzX_uujO-124" value="GUDANG A" style="rounded=1;whiteSpace=wrap;html=1;" vertex="1" parent="1">
          <mxGeometry x="370" y="1150" width="120" height="60" as="geometry" />
        </mxCell>
        <mxCell id="Y2LT002sczB3uzX_uujO-125" value="TERIMA" style="rounded=1;whiteSpace=wrap;html=1;" vertex="1" parent="1">
          <mxGeometry x="535" y="1070" width="120" height="60" as="geometry" />
        </mxCell>
        <mxCell id="Y2LT002sczB3uzX_uujO-126" value="LIST" style="rounded=1;whiteSpace=wrap;html=1;" vertex="1" parent="1">
          <mxGeometry x="535" y="1140" width="120" height="60" as="geometry" />
        </mxCell>
        <mxCell id="Y2LT002sczB3uzX_uujO-127" value="KIRIM" style="rounded=1;whiteSpace=wrap;html=1;" vertex="1" parent="1">
          <mxGeometry x="535" y="1220" width="120" height="60" as="geometry" />
        </mxCell>
        <mxCell id="Y2LT002sczB3uzX_uujO-133" style="edgeStyle=orthogonalEdgeStyle;rounded=0;orthogonalLoop=1;jettySize=auto;html=1;exitX=1;exitY=0.5;exitDx=0;exitDy=0;entryX=0;entryY=0.5;entryDx=0;entryDy=0;" edge="1" parent="1" source="Y2LT002sczB3uzX_uujO-132" target="Y2LT002sczB3uzX_uujO-47">
          <mxGeometry relative="1" as="geometry" />
        </mxCell>
        <mxCell id="Y2LT002sczB3uzX_uujO-135" style="edgeStyle=orthogonalEdgeStyle;rounded=0;orthogonalLoop=1;jettySize=auto;html=1;exitX=1;exitY=0.5;exitDx=0;exitDy=0;entryX=0;entryY=0.5;entryDx=0;entryDy=0;" edge="1" parent="1" source="Y2LT002sczB3uzX_uujO-132" target="Y2LT002sczB3uzX_uujO-110">
          <mxGeometry relative="1" as="geometry" />
        </mxCell>
        <mxCell id="Y2LT002sczB3uzX_uujO-136" style="edgeStyle=orthogonalEdgeStyle;rounded=0;orthogonalLoop=1;jettySize=auto;html=1;exitX=1;exitY=0.5;exitDx=0;exitDy=0;entryX=0;entryY=0.5;entryDx=0;entryDy=0;" edge="1" parent="1" source="Y2LT002sczB3uzX_uujO-132" target="Y2LT002sczB3uzX_uujO-117">
          <mxGeometry relative="1" as="geometry" />
        </mxCell>
        <mxCell id="Y2LT002sczB3uzX_uujO-137" style="edgeStyle=orthogonalEdgeStyle;rounded=0;orthogonalLoop=1;jettySize=auto;html=1;exitX=1;exitY=0.5;exitDx=0;exitDy=0;entryX=0;entryY=0.5;entryDx=0;entryDy=0;" edge="1" parent="1" source="Y2LT002sczB3uzX_uujO-132" target="Y2LT002sczB3uzX_uujO-124">
          <mxGeometry relative="1" as="geometry" />
        </mxCell>
        <mxCell id="Y2LT002sczB3uzX_uujO-132" value="GUDANG" style="rounded=1;whiteSpace=wrap;html=1;" vertex="1" parent="1">
          <mxGeometry x="190" y="210" width="120" height="60" as="geometry" />
        </mxCell>
        <mxCell id="Y2LT002sczB3uzX_uujO-134" style="edgeStyle=orthogonalEdgeStyle;rounded=0;orthogonalLoop=1;jettySize=auto;html=1;exitX=0;exitY=0.75;exitDx=0;exitDy=0;entryX=0.002;entryY=0.424;entryDx=0;entryDy=0;entryPerimeter=0;" edge="1" parent="1" source="Y2LT002sczB3uzX_uujO-103" target="Y2LT002sczB3uzX_uujO-2">
          <mxGeometry relative="1" as="geometry" />
        </mxCell>
        <mxCell id="Y2LT002sczB3uzX_uujO-139" value="DASBOARD" style="rounded=1;whiteSpace=wrap;html=1;" vertex="1" parent="1">
          <mxGeometry x="230" y="-480" width="120" height="60" as="geometry" />
        </mxCell>
        <mxCell id="Y2LT002sczB3uzX_uujO-162" style="edgeStyle=orthogonalEdgeStyle;rounded=0;orthogonalLoop=1;jettySize=auto;html=1;exitX=1;exitY=0.5;exitDx=0;exitDy=0;entryX=0;entryY=0.5;entryDx=0;entryDy=0;" edge="1" parent="1" source="Y2LT002sczB3uzX_uujO-140" target="Y2LT002sczB3uzX_uujO-144">
          <mxGeometry relative="1" as="geometry" />
        </mxCell>
        <mxCell id="Y2LT002sczB3uzX_uujO-164" style="edgeStyle=orthogonalEdgeStyle;rounded=0;orthogonalLoop=1;jettySize=auto;html=1;exitX=1;exitY=0.5;exitDx=0;exitDy=0;entryX=0;entryY=0.5;entryDx=0;entryDy=0;" edge="1" parent="1" source="Y2LT002sczB3uzX_uujO-140" target="Y2LT002sczB3uzX_uujO-163">
          <mxGeometry relative="1" as="geometry" />
        </mxCell>
        <mxCell id="Y2LT002sczB3uzX_uujO-176" style="edgeStyle=orthogonalEdgeStyle;rounded=0;orthogonalLoop=1;jettySize=auto;html=1;exitX=1;exitY=0.5;exitDx=0;exitDy=0;entryX=0;entryY=0.5;entryDx=0;entryDy=0;" edge="1" parent="1" source="Y2LT002sczB3uzX_uujO-140" target="Y2LT002sczB3uzX_uujO-173">
          <mxGeometry relative="1" as="geometry" />
        </mxCell>
        <mxCell id="Y2LT002sczB3uzX_uujO-186" style="edgeStyle=orthogonalEdgeStyle;rounded=0;orthogonalLoop=1;jettySize=auto;html=1;exitX=1;exitY=0.5;exitDx=0;exitDy=0;entryX=0;entryY=0.5;entryDx=0;entryDy=0;" edge="1" parent="1" source="Y2LT002sczB3uzX_uujO-140" target="Y2LT002sczB3uzX_uujO-182">
          <mxGeometry relative="1" as="geometry">
            <Array as="points">
              <mxPoint x="530" y="-260" />
              <mxPoint x="530" y="-210" />
              <mxPoint x="680" y="-210" />
              <mxPoint x="680" y="-80" />
              <mxPoint x="730" y="-80" />
            </Array>
          </mxGeometry>
        </mxCell>
        <mxCell id="Y2LT002sczB3uzX_uujO-231" style="edgeStyle=orthogonalEdgeStyle;rounded=0;orthogonalLoop=1;jettySize=auto;html=1;exitX=1;exitY=0.5;exitDx=0;exitDy=0;entryX=0;entryY=0.5;entryDx=0;entryDy=0;" edge="1" parent="1" source="Y2LT002sczB3uzX_uujO-140" target="Y2LT002sczB3uzX_uujO-228">
          <mxGeometry relative="1" as="geometry">
            <Array as="points">
              <mxPoint x="530" y="-260" />
              <mxPoint x="530" y="-210" />
              <mxPoint x="680" y="-210" />
              <mxPoint x="680" y="100" />
            </Array>
          </mxGeometry>
        </mxCell>
        <mxCell id="Y2LT002sczB3uzX_uujO-140" value="MASTER DATA" style="rounded=1;whiteSpace=wrap;html=1;" vertex="1" parent="1">
          <mxGeometry x="230" y="-290" width="120" height="60" as="geometry" />
        </mxCell>
        <mxCell id="Y2LT002sczB3uzX_uujO-148" style="edgeStyle=orthogonalEdgeStyle;rounded=0;orthogonalLoop=1;jettySize=auto;html=1;exitX=1;exitY=0.5;exitDx=0;exitDy=0;entryX=0;entryY=0.5;entryDx=0;entryDy=0;" edge="1" parent="1" source="Y2LT002sczB3uzX_uujO-144" target="Y2LT002sczB3uzX_uujO-145">
          <mxGeometry relative="1" as="geometry" />
        </mxCell>
        <mxCell id="Y2LT002sczB3uzX_uujO-149" style="edgeStyle=orthogonalEdgeStyle;rounded=0;orthogonalLoop=1;jettySize=auto;html=1;exitX=1;exitY=0.5;exitDx=0;exitDy=0;entryX=0;entryY=0.5;entryDx=0;entryDy=0;" edge="1" parent="1" source="Y2LT002sczB3uzX_uujO-144" target="Y2LT002sczB3uzX_uujO-146">
          <mxGeometry relative="1" as="geometry" />
        </mxCell>
        <mxCell id="Y2LT002sczB3uzX_uujO-144" value="USER" style="rounded=1;whiteSpace=wrap;html=1;" vertex="1" parent="1">
          <mxGeometry x="400" y="-610" width="120" height="60" as="geometry" />
        </mxCell>
        <mxCell id="Y2LT002sczB3uzX_uujO-153" style="edgeStyle=orthogonalEdgeStyle;rounded=0;orthogonalLoop=1;jettySize=auto;html=1;exitX=1;exitY=0.5;exitDx=0;exitDy=0;entryX=0;entryY=0.5;entryDx=0;entryDy=0;" edge="1" parent="1" source="Y2LT002sczB3uzX_uujO-145" target="Y2LT002sczB3uzX_uujO-150">
          <mxGeometry relative="1" as="geometry" />
        </mxCell>
        <mxCell id="Y2LT002sczB3uzX_uujO-154" style="edgeStyle=orthogonalEdgeStyle;rounded=0;orthogonalLoop=1;jettySize=auto;html=1;exitX=1;exitY=0.5;exitDx=0;exitDy=0;entryX=0;entryY=0.5;entryDx=0;entryDy=0;" edge="1" parent="1" source="Y2LT002sczB3uzX_uujO-145" target="Y2LT002sczB3uzX_uujO-151">
          <mxGeometry relative="1" as="geometry" />
        </mxCell>
        <mxCell id="Y2LT002sczB3uzX_uujO-145" value="DATA USERS" style="rounded=1;whiteSpace=wrap;html=1;" vertex="1" parent="1">
          <mxGeometry x="560" y="-650" width="120" height="60" as="geometry" />
        </mxCell>
        <mxCell id="Y2LT002sczB3uzX_uujO-160" style="edgeStyle=orthogonalEdgeStyle;rounded=0;orthogonalLoop=1;jettySize=auto;html=1;exitX=1;exitY=0.5;exitDx=0;exitDy=0;entryX=0;entryY=0.5;entryDx=0;entryDy=0;" edge="1" parent="1" source="Y2LT002sczB3uzX_uujO-146" target="Y2LT002sczB3uzX_uujO-158">
          <mxGeometry relative="1" as="geometry" />
        </mxCell>
        <mxCell id="Y2LT002sczB3uzX_uujO-161" style="edgeStyle=orthogonalEdgeStyle;rounded=0;orthogonalLoop=1;jettySize=auto;html=1;exitX=1;exitY=0.5;exitDx=0;exitDy=0;entryX=0;entryY=0.5;entryDx=0;entryDy=0;" edge="1" parent="1" source="Y2LT002sczB3uzX_uujO-146" target="Y2LT002sczB3uzX_uujO-159">
          <mxGeometry relative="1" as="geometry" />
        </mxCell>
        <mxCell id="Y2LT002sczB3uzX_uujO-146" value="ROLE" style="rounded=1;whiteSpace=wrap;html=1;" vertex="1" parent="1">
          <mxGeometry x="560" y="-570" width="120" height="60" as="geometry" />
        </mxCell>
        <mxCell id="Y2LT002sczB3uzX_uujO-150" value="CREATE" style="rounded=1;whiteSpace=wrap;html=1;" vertex="1" parent="1">
          <mxGeometry x="740" y="-700" width="120" height="60" as="geometry" />
        </mxCell>
        <mxCell id="Y2LT002sczB3uzX_uujO-151" value="LIST" style="rounded=1;whiteSpace=wrap;html=1;" vertex="1" parent="1">
          <mxGeometry x="740" y="-620" width="120" height="60" as="geometry" />
        </mxCell>
        <mxCell id="Y2LT002sczB3uzX_uujO-158" value="CREATE" style="rounded=1;whiteSpace=wrap;html=1;" vertex="1" parent="1">
          <mxGeometry x="740" y="-550" width="120" height="60" as="geometry" />
        </mxCell>
        <mxCell id="Y2LT002sczB3uzX_uujO-159" value="LIST" style="rounded=1;whiteSpace=wrap;html=1;" vertex="1" parent="1">
          <mxGeometry x="740" y="-470" width="120" height="60" as="geometry" />
        </mxCell>
        <mxCell id="Y2LT002sczB3uzX_uujO-169" style="edgeStyle=orthogonalEdgeStyle;rounded=0;orthogonalLoop=1;jettySize=auto;html=1;exitX=1;exitY=0.5;exitDx=0;exitDy=0;entryX=0;entryY=0.5;entryDx=0;entryDy=0;" edge="1" parent="1" source="Y2LT002sczB3uzX_uujO-163" target="Y2LT002sczB3uzX_uujO-165">
          <mxGeometry relative="1" as="geometry" />
        </mxCell>
        <mxCell id="Y2LT002sczB3uzX_uujO-170" style="edgeStyle=orthogonalEdgeStyle;rounded=0;orthogonalLoop=1;jettySize=auto;html=1;exitX=1;exitY=0.5;exitDx=0;exitDy=0;entryX=0;entryY=0.5;entryDx=0;entryDy=0;" edge="1" parent="1" source="Y2LT002sczB3uzX_uujO-163" target="Y2LT002sczB3uzX_uujO-166">
          <mxGeometry relative="1" as="geometry" />
        </mxCell>
        <mxCell id="Y2LT002sczB3uzX_uujO-163" value="PRODUCT" style="rounded=1;whiteSpace=wrap;html=1;" vertex="1" parent="1">
          <mxGeometry x="400" y="-380" width="120" height="60" as="geometry" />
        </mxCell>
        <mxCell id="Y2LT002sczB3uzX_uujO-165" value="CREATE" style="rounded=1;whiteSpace=wrap;html=1;" vertex="1" parent="1">
          <mxGeometry x="550" y="-410" width="120" height="60" as="geometry" />
        </mxCell>
        <mxCell id="Y2LT002sczB3uzX_uujO-166" value="LIST" style="rounded=1;whiteSpace=wrap;html=1;" vertex="1" parent="1">
          <mxGeometry x="550" y="-330" width="120" height="60" as="geometry" />
        </mxCell>
        <mxCell id="Y2LT002sczB3uzX_uujO-171" style="edgeStyle=orthogonalEdgeStyle;rounded=0;orthogonalLoop=1;jettySize=auto;html=1;exitX=1;exitY=0.5;exitDx=0;exitDy=0;entryX=0;entryY=0.5;entryDx=0;entryDy=0;" edge="1" source="Y2LT002sczB3uzX_uujO-173" target="Y2LT002sczB3uzX_uujO-174" parent="1">
          <mxGeometry relative="1" as="geometry" />
        </mxCell>
        <mxCell id="Y2LT002sczB3uzX_uujO-172" style="edgeStyle=orthogonalEdgeStyle;rounded=0;orthogonalLoop=1;jettySize=auto;html=1;exitX=1;exitY=0.5;exitDx=0;exitDy=0;entryX=0;entryY=0.5;entryDx=0;entryDy=0;" edge="1" source="Y2LT002sczB3uzX_uujO-173" target="Y2LT002sczB3uzX_uujO-175" parent="1">
          <mxGeometry relative="1" as="geometry" />
        </mxCell>
        <mxCell id="Y2LT002sczB3uzX_uujO-178" style="edgeStyle=orthogonalEdgeStyle;rounded=0;orthogonalLoop=1;jettySize=auto;html=1;exitX=1;exitY=0.5;exitDx=0;exitDy=0;entryX=0;entryY=0.5;entryDx=0;entryDy=0;" edge="1" parent="1" source="Y2LT002sczB3uzX_uujO-173" target="Y2LT002sczB3uzX_uujO-177">
          <mxGeometry relative="1" as="geometry" />
        </mxCell>
        <mxCell id="Y2LT002sczB3uzX_uujO-173" value="SUPPLIER" style="rounded=1;whiteSpace=wrap;html=1;" vertex="1" parent="1">
          <mxGeometry x="710" y="-290" width="120" height="60" as="geometry" />
        </mxCell>
        <mxCell id="Y2LT002sczB3uzX_uujO-174" value="CREATE" style="rounded=1;whiteSpace=wrap;html=1;" vertex="1" parent="1">
          <mxGeometry x="870" y="-360" width="120" height="60" as="geometry" />
        </mxCell>
        <mxCell id="Y2LT002sczB3uzX_uujO-175" value="LIST" style="rounded=1;whiteSpace=wrap;html=1;" vertex="1" parent="1">
          <mxGeometry x="870" y="-290" width="120" height="60" as="geometry" />
        </mxCell>
        <mxCell id="Y2LT002sczB3uzX_uujO-177" value="KIRIM&amp;nbsp; BARANG" style="rounded=1;whiteSpace=wrap;html=1;" vertex="1" parent="1">
          <mxGeometry x="870" y="-220" width="120" height="60" as="geometry" />
        </mxCell>
        <mxCell id="Y2LT002sczB3uzX_uujO-179" style="edgeStyle=orthogonalEdgeStyle;rounded=0;orthogonalLoop=1;jettySize=auto;html=1;exitX=1;exitY=0.5;exitDx=0;exitDy=0;entryX=0;entryY=0.5;entryDx=0;entryDy=0;" edge="1" source="Y2LT002sczB3uzX_uujO-182" target="Y2LT002sczB3uzX_uujO-183" parent="1">
          <mxGeometry relative="1" as="geometry" />
        </mxCell>
        <mxCell id="Y2LT002sczB3uzX_uujO-180" style="edgeStyle=orthogonalEdgeStyle;rounded=0;orthogonalLoop=1;jettySize=auto;html=1;exitX=1;exitY=0.5;exitDx=0;exitDy=0;entryX=0;entryY=0.5;entryDx=0;entryDy=0;" edge="1" source="Y2LT002sczB3uzX_uujO-182" target="Y2LT002sczB3uzX_uujO-184" parent="1">
          <mxGeometry relative="1" as="geometry" />
        </mxCell>
        <mxCell id="Y2LT002sczB3uzX_uujO-182" value="COMPANY" style="rounded=1;whiteSpace=wrap;html=1;" vertex="1" parent="1">
          <mxGeometry x="730" y="-105" width="120" height="60" as="geometry" />
        </mxCell>
        <mxCell id="Y2LT002sczB3uzX_uujO-183" value="CREATE" style="rounded=1;whiteSpace=wrap;html=1;" vertex="1" parent="1">
          <mxGeometry x="890" y="-135" width="120" height="60" as="geometry" />
        </mxCell>
        <mxCell id="Y2LT002sczB3uzX_uujO-184" value="LIST" style="rounded=1;whiteSpace=wrap;html=1;" vertex="1" parent="1">
          <mxGeometry x="890" y="-65" width="120" height="60" as="geometry" />
        </mxCell>
        <mxCell id="Y2LT002sczB3uzX_uujO-226" style="edgeStyle=orthogonalEdgeStyle;rounded=0;orthogonalLoop=1;jettySize=auto;html=1;exitX=1;exitY=0.5;exitDx=0;exitDy=0;entryX=0;entryY=0.5;entryDx=0;entryDy=0;" edge="1" source="Y2LT002sczB3uzX_uujO-228" target="Y2LT002sczB3uzX_uujO-229" parent="1">
          <mxGeometry relative="1" as="geometry" />
        </mxCell>
        <mxCell id="Y2LT002sczB3uzX_uujO-227" style="edgeStyle=orthogonalEdgeStyle;rounded=0;orthogonalLoop=1;jettySize=auto;html=1;exitX=1;exitY=0.5;exitDx=0;exitDy=0;entryX=0;entryY=0.5;entryDx=0;entryDy=0;" edge="1" source="Y2LT002sczB3uzX_uujO-228" target="Y2LT002sczB3uzX_uujO-230" parent="1">
          <mxGeometry relative="1" as="geometry" />
        </mxCell>
        <mxCell id="Y2LT002sczB3uzX_uujO-228" value="BRANCH" style="rounded=1;whiteSpace=wrap;html=1;" vertex="1" parent="1">
          <mxGeometry x="730" y="70" width="120" height="60" as="geometry" />
        </mxCell>
        <mxCell id="Y2LT002sczB3uzX_uujO-229" value="CREATE" style="rounded=1;whiteSpace=wrap;html=1;" vertex="1" parent="1">
          <mxGeometry x="890" y="40" width="120" height="60" as="geometry" />
        </mxCell>
        <mxCell id="Y2LT002sczB3uzX_uujO-230" value="LIST" style="rounded=1;whiteSpace=wrap;html=1;" vertex="1" parent="1">
          <mxGeometry x="890" y="110" width="120" height="60" as="geometry" />
        </mxCell>
        <mxCell id="Y2LT002sczB3uzX_uujO-349" style="edgeStyle=orthogonalEdgeStyle;rounded=0;orthogonalLoop=1;jettySize=auto;html=1;exitX=1;exitY=0.5;exitDx=0;exitDy=0;entryX=0;entryY=0.5;entryDx=0;entryDy=0;" edge="1" parent="1" source="Y2LT002sczB3uzX_uujO-342" target="Y2LT002sczB3uzX_uujO-344">
          <mxGeometry relative="1" as="geometry" />
        </mxCell>
        <mxCell id="Y2LT002sczB3uzX_uujO-350" style="edgeStyle=orthogonalEdgeStyle;rounded=0;orthogonalLoop=1;jettySize=auto;html=1;exitX=1;exitY=0.5;exitDx=0;exitDy=0;entryX=0;entryY=0.5;entryDx=0;entryDy=0;" edge="1" parent="1" source="Y2LT002sczB3uzX_uujO-342" target="Y2LT002sczB3uzX_uujO-345">
          <mxGeometry relative="1" as="geometry" />
        </mxCell>
        <mxCell id="Y2LT002sczB3uzX_uujO-351" style="edgeStyle=orthogonalEdgeStyle;rounded=0;orthogonalLoop=1;jettySize=auto;html=1;exitX=1;exitY=0.5;exitDx=0;exitDy=0;entryX=0;entryY=0.5;entryDx=0;entryDy=0;" edge="1" parent="1" source="Y2LT002sczB3uzX_uujO-342" target="Y2LT002sczB3uzX_uujO-346">
          <mxGeometry relative="1" as="geometry" />
        </mxCell>
        <mxCell id="Y2LT002sczB3uzX_uujO-342" value="TRANSAKSI" style="rounded=1;whiteSpace=wrap;html=1;" vertex="1" parent="1">
          <mxGeometry x="160" y="1500" width="120" height="60" as="geometry" />
        </mxCell>
        <mxCell id="Y2LT002sczB3uzX_uujO-355" style="edgeStyle=orthogonalEdgeStyle;rounded=0;orthogonalLoop=1;jettySize=auto;html=1;exitX=1;exitY=0.5;exitDx=0;exitDy=0;entryX=0;entryY=0.75;entryDx=0;entryDy=0;" edge="1" parent="1" source="Y2LT002sczB3uzX_uujO-344" target="Y2LT002sczB3uzX_uujO-352">
          <mxGeometry relative="1" as="geometry">
            <Array as="points">
              <mxPoint x="460" y="1460" />
              <mxPoint x="460" y="1340" />
              <mxPoint x="690" y="1340" />
              <mxPoint x="690" y="1255" />
            </Array>
          </mxGeometry>
        </mxCell>
        <mxCell id="Y2LT002sczB3uzX_uujO-357" style="edgeStyle=orthogonalEdgeStyle;rounded=0;orthogonalLoop=1;jettySize=auto;html=1;exitX=1;exitY=0.5;exitDx=0;exitDy=0;entryX=0;entryY=0.5;entryDx=0;entryDy=0;" edge="1" parent="1" source="Y2LT002sczB3uzX_uujO-344" target="Y2LT002sczB3uzX_uujO-354">
          <mxGeometry relative="1" as="geometry">
            <Array as="points">
              <mxPoint x="460" y="1460" />
              <mxPoint x="460" y="1340" />
              <mxPoint x="690" y="1340" />
              <mxPoint x="690" y="1390" />
            </Array>
          </mxGeometry>
        </mxCell>
        <mxCell id="Y2LT002sczB3uzX_uujO-344" value="STORE 1" style="rounded=1;whiteSpace=wrap;html=1;" vertex="1" parent="1">
          <mxGeometry x="320" y="1430" width="120" height="60" as="geometry" />
        </mxCell>
        <mxCell id="Y2LT002sczB3uzX_uujO-362" style="edgeStyle=orthogonalEdgeStyle;rounded=0;orthogonalLoop=1;jettySize=auto;html=1;exitX=1;exitY=0.5;exitDx=0;exitDy=0;entryX=0;entryY=0.5;entryDx=0;entryDy=0;" edge="1" parent="1" source="Y2LT002sczB3uzX_uujO-345" target="Y2LT002sczB3uzX_uujO-359">
          <mxGeometry relative="1" as="geometry" />
        </mxCell>
        <mxCell id="Y2LT002sczB3uzX_uujO-363" style="edgeStyle=orthogonalEdgeStyle;rounded=0;orthogonalLoop=1;jettySize=auto;html=1;exitX=1;exitY=0.5;exitDx=0;exitDy=0;entryX=0;entryY=0.5;entryDx=0;entryDy=0;" edge="1" parent="1" source="Y2LT002sczB3uzX_uujO-345" target="Y2LT002sczB3uzX_uujO-360">
          <mxGeometry relative="1" as="geometry">
            <Array as="points">
              <mxPoint x="580" y="1540" />
              <mxPoint x="580" y="1620" />
            </Array>
          </mxGeometry>
        </mxCell>
        <mxCell id="Y2LT002sczB3uzX_uujO-370" style="edgeStyle=orthogonalEdgeStyle;rounded=0;orthogonalLoop=1;jettySize=auto;html=1;exitX=1;exitY=0.5;exitDx=0;exitDy=0;entryX=0;entryY=0.5;entryDx=0;entryDy=0;" edge="1" parent="1" source="Y2LT002sczB3uzX_uujO-345">
          <mxGeometry relative="1" as="geometry">
            <mxPoint x="730" y="1470" as="targetPoint" />
            <Array as="points">
              <mxPoint x="580" y="1540" />
              <mxPoint x="580" y="1470" />
            </Array>
          </mxGeometry>
        </mxCell>
        <mxCell id="Y2LT002sczB3uzX_uujO-345" value="STORE 1" style="rounded=1;whiteSpace=wrap;html=1;" vertex="1" parent="1">
          <mxGeometry x="320" y="1510" width="120" height="60" as="geometry" />
        </mxCell>
        <mxCell id="Y2LT002sczB3uzX_uujO-367" style="edgeStyle=orthogonalEdgeStyle;rounded=0;orthogonalLoop=1;jettySize=auto;html=1;exitX=1;exitY=0.5;exitDx=0;exitDy=0;entryX=0;entryY=0.5;entryDx=0;entryDy=0;" edge="1" parent="1" source="Y2LT002sczB3uzX_uujO-346" target="Y2LT002sczB3uzX_uujO-364">
          <mxGeometry relative="1" as="geometry">
            <Array as="points">
              <mxPoint x="460" y="1620" />
              <mxPoint x="460" y="1770" />
              <mxPoint x="550" y="1770" />
              <mxPoint x="550" y="1700" />
            </Array>
          </mxGeometry>
        </mxCell>
        <mxCell id="Y2LT002sczB3uzX_uujO-368" style="edgeStyle=orthogonalEdgeStyle;rounded=0;orthogonalLoop=1;jettySize=auto;html=1;exitX=1;exitY=0.5;exitDx=0;exitDy=0;entryX=0;entryY=0.5;entryDx=0;entryDy=0;" edge="1" parent="1" source="Y2LT002sczB3uzX_uujO-346" target="Y2LT002sczB3uzX_uujO-365">
          <mxGeometry relative="1" as="geometry">
            <Array as="points">
              <mxPoint x="460" y="1620" />
              <mxPoint x="460" y="1770" />
            </Array>
          </mxGeometry>
        </mxCell>
        <mxCell id="Y2LT002sczB3uzX_uujO-369" style="edgeStyle=orthogonalEdgeStyle;rounded=0;orthogonalLoop=1;jettySize=auto;html=1;exitX=1;exitY=0.5;exitDx=0;exitDy=0;entryX=0;entryY=0.5;entryDx=0;entryDy=0;" edge="1" parent="1" source="Y2LT002sczB3uzX_uujO-346" target="Y2LT002sczB3uzX_uujO-366">
          <mxGeometry relative="1" as="geometry">
            <Array as="points">
              <mxPoint x="460" y="1620" />
              <mxPoint x="460" y="1770" />
              <mxPoint x="550" y="1770" />
              <mxPoint x="550" y="1850" />
            </Array>
          </mxGeometry>
        </mxCell>
        <mxCell id="Y2LT002sczB3uzX_uujO-346" value="STORE 1" style="rounded=1;whiteSpace=wrap;html=1;" vertex="1" parent="1">
          <mxGeometry x="320" y="1590" width="120" height="60" as="geometry" />
        </mxCell>
        <mxCell id="Y2LT002sczB3uzX_uujO-352" value="TERIMA" style="rounded=1;whiteSpace=wrap;html=1;" vertex="1" parent="1">
          <mxGeometry x="730" y="1210" width="120" height="60" as="geometry" />
        </mxCell>
        <mxCell id="Y2LT002sczB3uzX_uujO-353" value="LIST" style="rounded=1;whiteSpace=wrap;html=1;" vertex="1" parent="1">
          <mxGeometry x="730" y="1280" width="120" height="60" as="geometry" />
        </mxCell>
        <mxCell id="Y2LT002sczB3uzX_uujO-354" value="PENJUALAN" style="rounded=1;whiteSpace=wrap;html=1;" vertex="1" parent="1">
          <mxGeometry x="730" y="1360" width="120" height="60" as="geometry" />
        </mxCell>
        <mxCell id="Y2LT002sczB3uzX_uujO-356" style="edgeStyle=orthogonalEdgeStyle;rounded=0;orthogonalLoop=1;jettySize=auto;html=1;exitX=1;exitY=0.5;exitDx=0;exitDy=0;entryX=0.068;entryY=0.549;entryDx=0;entryDy=0;entryPerimeter=0;" edge="1" parent="1" source="Y2LT002sczB3uzX_uujO-344" target="Y2LT002sczB3uzX_uujO-353">
          <mxGeometry relative="1" as="geometry">
            <Array as="points">
              <mxPoint x="460" y="1460" />
              <mxPoint x="460" y="1340" />
              <mxPoint x="690" y="1340" />
              <mxPoint x="690" y="1313" />
            </Array>
          </mxGeometry>
        </mxCell>
        <mxCell id="Y2LT002sczB3uzX_uujO-359" value="LIST" style="rounded=1;whiteSpace=wrap;html=1;" vertex="1" parent="1">
          <mxGeometry x="730" y="1510" width="120" height="60" as="geometry" />
        </mxCell>
        <mxCell id="Y2LT002sczB3uzX_uujO-360" value="PENJUALAN" style="rounded=1;whiteSpace=wrap;html=1;" vertex="1" parent="1">
          <mxGeometry x="730" y="1590" width="120" height="60" as="geometry" />
        </mxCell>
        <mxCell id="Y2LT002sczB3uzX_uujO-364" value="TERIMA" style="rounded=1;whiteSpace=wrap;html=1;" vertex="1" parent="1">
          <mxGeometry x="730" y="1670" width="120" height="60" as="geometry" />
        </mxCell>
        <mxCell id="Y2LT002sczB3uzX_uujO-365" value="LIST" style="rounded=1;whiteSpace=wrap;html=1;" vertex="1" parent="1">
          <mxGeometry x="730" y="1740" width="120" height="60" as="geometry" />
        </mxCell>
        <mxCell id="Y2LT002sczB3uzX_uujO-366" value="PENJUALAN" style="rounded=1;whiteSpace=wrap;html=1;" vertex="1" parent="1">
          <mxGeometry x="730" y="1820" width="120" height="60" as="geometry" />
        </mxCell>
        <mxCell id="Y2LT002sczB3uzX_uujO-372" value="TERIMA" style="rounded=1;whiteSpace=wrap;html=1;" vertex="1" parent="1">
          <mxGeometry x="730" y="1440" width="120" height="60" as="geometry" />
        </mxCell>
        <mxCell id="Y2LT002sczB3uzX_uujO-402" style="edgeStyle=orthogonalEdgeStyle;rounded=0;orthogonalLoop=1;jettySize=auto;html=1;exitX=1;exitY=0.5;exitDx=0;exitDy=0;entryX=0;entryY=0.5;entryDx=0;entryDy=0;" edge="1" source="Y2LT002sczB3uzX_uujO-405" target="Y2LT002sczB3uzX_uujO-406" parent="1">
          <mxGeometry relative="1" as="geometry" />
        </mxCell>
        <mxCell id="Y2LT002sczB3uzX_uujO-403" style="edgeStyle=orthogonalEdgeStyle;rounded=0;orthogonalLoop=1;jettySize=auto;html=1;exitX=1;exitY=0.5;exitDx=0;exitDy=0;entryX=0;entryY=0.5;entryDx=0;entryDy=0;" edge="1" source="Y2LT002sczB3uzX_uujO-405" target="Y2LT002sczB3uzX_uujO-407" parent="1">
          <mxGeometry relative="1" as="geometry" />
        </mxCell>
        <mxCell id="Y2LT002sczB3uzX_uujO-404" style="edgeStyle=orthogonalEdgeStyle;rounded=0;orthogonalLoop=1;jettySize=auto;html=1;exitX=1;exitY=0.5;exitDx=0;exitDy=0;entryX=0;entryY=0.5;entryDx=0;entryDy=0;" edge="1" source="Y2LT002sczB3uzX_uujO-405" target="Y2LT002sczB3uzX_uujO-408" parent="1">
          <mxGeometry relative="1" as="geometry" />
        </mxCell>
        <mxCell id="Y2LT002sczB3uzX_uujO-411" style="edgeStyle=orthogonalEdgeStyle;rounded=0;orthogonalLoop=1;jettySize=auto;html=1;exitX=1;exitY=0.5;exitDx=0;exitDy=0;entryX=0;entryY=0.5;entryDx=0;entryDy=0;" edge="1" parent="1" source="Y2LT002sczB3uzX_uujO-405" target="Y2LT002sczB3uzX_uujO-410">
          <mxGeometry relative="1" as="geometry" />
        </mxCell>
        <mxCell id="Y2LT002sczB3uzX_uujO-413" style="edgeStyle=orthogonalEdgeStyle;rounded=0;orthogonalLoop=1;jettySize=auto;html=1;exitX=1;exitY=0.5;exitDx=0;exitDy=0;entryX=0;entryY=0.5;entryDx=0;entryDy=0;" edge="1" parent="1" source="Y2LT002sczB3uzX_uujO-405" target="Y2LT002sczB3uzX_uujO-412">
          <mxGeometry relative="1" as="geometry" />
        </mxCell>
        <mxCell id="Y2LT002sczB3uzX_uujO-405" value="REPORT" style="rounded=1;whiteSpace=wrap;html=1;" vertex="1" parent="1">
          <mxGeometry x="100" y="2220" width="120" height="60" as="geometry" />
        </mxCell>
        <mxCell id="Y2LT002sczB3uzX_uujO-434" style="edgeStyle=orthogonalEdgeStyle;rounded=0;orthogonalLoop=1;jettySize=auto;html=1;exitX=1;exitY=0.5;exitDx=0;exitDy=0;entryX=0;entryY=0.5;entryDx=0;entryDy=0;" edge="1" parent="1" source="Y2LT002sczB3uzX_uujO-406" target="Y2LT002sczB3uzX_uujO-426">
          <mxGeometry relative="1" as="geometry" />
        </mxCell>
        <mxCell id="Y2LT002sczB3uzX_uujO-406" value="STOCK" style="rounded=1;whiteSpace=wrap;html=1;" vertex="1" parent="1">
          <mxGeometry x="350" y="2060" width="120" height="60" as="geometry" />
        </mxCell>
        <mxCell id="Y2LT002sczB3uzX_uujO-432" style="edgeStyle=orthogonalEdgeStyle;rounded=0;orthogonalLoop=1;jettySize=auto;html=1;exitX=1;exitY=0.5;exitDx=0;exitDy=0;entryX=0;entryY=0.5;entryDx=0;entryDy=0;" edge="1" parent="1" source="Y2LT002sczB3uzX_uujO-407" target="Y2LT002sczB3uzX_uujO-417">
          <mxGeometry relative="1" as="geometry" />
        </mxCell>
        <mxCell id="Y2LT002sczB3uzX_uujO-407" value="PENGELUARAN" style="rounded=1;whiteSpace=wrap;html=1;" vertex="1" parent="1">
          <mxGeometry x="350" y="2140" width="120" height="60" as="geometry" />
        </mxCell>
        <mxCell id="Y2LT002sczB3uzX_uujO-431" style="edgeStyle=orthogonalEdgeStyle;rounded=0;orthogonalLoop=1;jettySize=auto;html=1;exitX=1;exitY=0.5;exitDx=0;exitDy=0;entryX=0;entryY=0.5;entryDx=0;entryDy=0;" edge="1" parent="1" source="Y2LT002sczB3uzX_uujO-408" target="Y2LT002sczB3uzX_uujO-424">
          <mxGeometry relative="1" as="geometry" />
        </mxCell>
        <mxCell id="Y2LT002sczB3uzX_uujO-408" value="PEMASUKAN" style="rounded=1;whiteSpace=wrap;html=1;" vertex="1" parent="1">
          <mxGeometry x="350" y="2220" width="120" height="60" as="geometry" />
        </mxCell>
        <mxCell id="Y2LT002sczB3uzX_uujO-430" style="edgeStyle=orthogonalEdgeStyle;rounded=0;orthogonalLoop=1;jettySize=auto;html=1;exitX=1;exitY=0.5;exitDx=0;exitDy=0;entryX=0;entryY=0.5;entryDx=0;entryDy=0;" edge="1" parent="1" source="Y2LT002sczB3uzX_uujO-410" target="Y2LT002sczB3uzX_uujO-425">
          <mxGeometry relative="1" as="geometry" />
        </mxCell>
        <mxCell id="Y2LT002sczB3uzX_uujO-410" value="PENJUALAN" style="rounded=1;whiteSpace=wrap;html=1;" vertex="1" parent="1">
          <mxGeometry x="350" y="2300" width="120" height="60" as="geometry" />
        </mxCell>
        <mxCell id="Y2LT002sczB3uzX_uujO-428" style="edgeStyle=orthogonalEdgeStyle;rounded=0;orthogonalLoop=1;jettySize=auto;html=1;exitX=1;exitY=0.5;exitDx=0;exitDy=0;entryX=0;entryY=0.5;entryDx=0;entryDy=0;" edge="1" parent="1" source="Y2LT002sczB3uzX_uujO-412" target="Y2LT002sczB3uzX_uujO-427">
          <mxGeometry relative="1" as="geometry" />
        </mxCell>
        <mxCell id="Y2LT002sczB3uzX_uujO-412" value="PEMBEIAN" style="rounded=1;whiteSpace=wrap;html=1;" vertex="1" parent="1">
          <mxGeometry x="350" y="2380" width="120" height="60" as="geometry" />
        </mxCell>
        <mxCell id="Y2LT002sczB3uzX_uujO-417" value="LIST" style="rounded=1;whiteSpace=wrap;html=1;" vertex="1" parent="1">
          <mxGeometry x="600" y="2140" width="120" height="60" as="geometry" />
        </mxCell>
        <mxCell id="Y2LT002sczB3uzX_uujO-424" value="LIST" style="rounded=1;whiteSpace=wrap;html=1;" vertex="1" parent="1">
          <mxGeometry x="600" y="2220" width="120" height="60" as="geometry" />
        </mxCell>
        <mxCell id="Y2LT002sczB3uzX_uujO-425" value="LIST" style="rounded=1;whiteSpace=wrap;html=1;" vertex="1" parent="1">
          <mxGeometry x="600" y="2300" width="120" height="60" as="geometry" />
        </mxCell>
        <mxCell id="Y2LT002sczB3uzX_uujO-426" value="LIST" style="rounded=1;whiteSpace=wrap;html=1;" vertex="1" parent="1">
          <mxGeometry x="600" y="2060" width="120" height="60" as="geometry" />
        </mxCell>
        <mxCell id="Y2LT002sczB3uzX_uujO-427" value="LIST" style="rounded=1;whiteSpace=wrap;html=1;" vertex="1" parent="1">
          <mxGeometry x="600" y="2380" width="120" height="60" as="geometry" />
        </mxCell>
      </root>
    </mxGraphModel>
  </diagram>
</mxfile>
